<svg width="95" height="96" viewBox="0 0 95 96" fill="none" xmlns="http://www.w3.org/2000/svg">
<path d="M47.5003 0.348999C21.2669 0.348999 0 21.7048 0 48.0479C0 71.6745 17.1248 91.2414 39.5782 95.0304V57.9991H28.1197V44.6731H39.5782V34.847C39.5782 23.4459 46.5126 17.233 56.6423 17.233C61.4938 17.233 65.6631 17.596 66.8735 17.7559V29.6731L59.8478 29.6765C54.3401 29.6765 53.2782 32.3041 53.2782 36.1614V44.6663H66.4202L64.7061 57.9923H53.2782V95.349C76.7799 92.4767 95 72.4114 95 48.0342C95 21.7048 73.7331 0.348999 47.5003 0.348999Z" fill="white"/>
</svg>
