<svg width="95" height="95" viewBox="0 0 95 95" fill="none" xmlns="http://www.w3.org/2000/svg">
<path d="M47.5 95C73.72 95 95 73.72 95 47.5C95 21.28 73.72 0 47.5 0C21.28 0 0 21.28 0 47.5C0 73.72 21.28 95 47.5 95ZM66.785 69.8883V69.8923C63.5906 69.8923 53.5008 58.6981 25.1433 64.509C24.3952 64.7029 23.4175 65.0077 22.8633 65.0077C19.2415 65.0077 18.5487 59.5887 22.4437 58.7615C38.1306 55.2979 54.1619 55.6027 67.834 63.7806C71.0956 65.8627 69.7102 69.8883 66.785 69.8883V69.8883ZM71.9427 57.3285C71.4954 57.2098 71.626 57.6017 69.5796 56.525C57.6056 49.4396 39.7615 46.5817 23.8806 50.8923C22.9623 51.1417 22.4635 51.391 21.6006 51.391C17.3612 51.391 16.2371 45.0142 20.8565 43.7119C39.524 38.4671 59.5492 41.5269 73.4904 49.8196C75.0421 50.7379 75.6556 51.9294 75.6556 53.5919C75.6358 55.6581 74.0287 57.3285 71.9427 57.3285V57.3285ZM18.0025 27.7004C35.906 22.4596 63.0008 24.1142 79.8475 33.9467C84.166 36.4365 82.4679 42.7342 77.8762 42.7342L77.8723 42.7302C76.8748 42.7302 76.2612 42.4808 75.3983 41.9821C61.7698 33.8437 37.3825 31.8923 21.6046 36.2979C20.9119 36.4879 20.049 36.7927 19.1306 36.7927C16.6013 36.7927 14.6696 34.8175 14.6696 32.2723C14.6696 29.6717 16.2806 28.1992 18.0025 27.7004V27.7004Z" fill="white"/>
</svg>
