<svg width="95" height="95" viewBox="0 0 95 95" fill="none" xmlns="http://www.w3.org/2000/svg">
<path d="M38.8446 57.9106C45.9722 54.2146 53.0377 50.5526 60.1683 46.8547C53.0163 43.1227 45.9528 39.4393 38.8446 35.7297C38.8446 43.149 38.8446 50.4924 38.8446 57.9106Z" fill="white"/>
<path d="M47.5 0C21.2674 0 0 21.2664 0 47.5C0 73.7336 21.2674 95 47.5 95C73.7326 95 95 73.7336 95 47.5C95 21.2664 73.7326 0 47.5 0ZM79.8641 63.355C79.0419 66.9218 76.1244 69.5526 72.613 69.9443C64.2968 70.8744 55.8804 70.8792 47.4981 70.8744C39.1157 70.8792 30.6974 70.8744 22.3792 69.9443C18.8678 69.5526 15.9522 66.9218 15.132 63.355C13.9628 58.2741 13.9628 52.7296 13.9628 47.5C13.9628 42.2704 13.9764 36.7239 15.1456 31.645C15.9658 28.0782 18.8814 25.4464 22.3928 25.0538C30.711 24.1247 39.1293 24.1198 47.5117 24.1247C55.8921 24.1198 64.3104 24.1247 72.6257 25.0538C76.139 25.4464 79.0565 28.0772 79.8768 31.645C81.0459 36.7249 81.0362 42.2704 81.0362 47.5C81.0362 52.7296 81.0333 58.2751 79.8641 63.355Z" fill="white"/>
</svg>
