<svg width="95" height="95" viewBox="0 0 95 95" fill="none" xmlns="http://www.w3.org/2000/svg">
<path d="M47.5 0C21.2705 0 0 21.2705 0 47.5C0 73.7295 21.2705 95 47.5 95C73.7295 95 95 73.7295 95 47.5C95 21.2705 73.7295 0 47.5 0ZM69.188 37.0354C69.209 37.5029 69.2191 37.9726 69.2191 38.4444C69.2191 52.8511 58.253 69.4641 38.1987 69.4648H38.1995H38.1987C32.0416 69.4648 26.3121 67.6601 21.4872 64.5674C22.3403 64.6682 23.2086 64.7182 24.0878 64.7182C29.1961 64.7182 33.8971 62.9758 37.6291 60.0512C32.8563 59.9628 28.8322 56.8107 27.4435 52.4786C28.1082 52.6062 28.7917 52.6757 29.4925 52.6757C30.4877 52.6757 31.4516 52.5417 32.3678 52.2916C27.379 51.2928 23.621 46.8839 23.621 41.6045C23.621 41.5553 23.621 41.511 23.6224 41.4654C25.0916 42.2822 26.7717 42.7736 28.5604 42.8287C25.633 40.8754 23.7087 37.5363 23.7087 33.7536C23.7087 31.7561 24.2487 29.8846 25.1851 28.2734C30.5616 34.8705 38.5966 39.2091 47.658 39.665C47.471 38.8663 47.3746 38.0342 47.3746 37.179C47.3746 31.1603 52.2575 26.2774 58.2784 26.2774C61.4146 26.2774 64.2471 27.603 66.2366 29.7223C68.7205 29.2323 71.0529 28.3249 73.1598 27.0761C72.3444 29.6208 70.6165 31.7561 68.3653 33.1063C70.5709 32.8425 72.6728 32.2576 74.6261 31.3893C73.1671 33.576 71.3167 35.4967 69.188 37.0354V37.0354Z" fill="white"/>
</svg>
